<svg height="488pt" viewBox="0 -82 488 488" width="488pt" xmlns="http://www.w3.org/2000/svg"><path d="m468 320h-448c-8.835938 0-16-7.164062-16-16v-284c0-8.835938 7.164062-16 16-16h448c8.835938 0 16 7.164062 16 16v284c0 8.835938-7.164062 16-16 16zm0 0" fill="#4671c6"/><path d="m428 227.164062h-368c-5.523438 0-10-4.476562-10-10v-170c0-5.519531 4.476562-10 10-10h368c5.523438 0 10 4.480469 10 10v170c0 5.527344-4.476562 10-10 10zm0 0" fill="#f9a7a7"/><path d="m428 37.164062h-368c-5.523438 0-10 4.480469-10 10v19.023438h388v-19.023438c0-5.519531-4.476562-10-10-10zm0 0" fill="#f9cfcf"/><path d="m349.5625 86.265625h-206.613281c-25.808594 0-46.734375 20.585937-46.734375 45.976563 0 25.394531 20.925781 45.980468 46.734375 45.980468h206.613281c25.808594 0 46.734375-20.585937 46.734375-45.980468 0-25.390626-20.925781-45.976563-46.734375-45.976563zm0 0" fill="#4671c6"/><path d="m50 217.164062c0 5.527344 4.476562 10 10 10h368c5.523438 0 10-4.472656 10-10v-19.019531h-388zm0 0" fill="#f9cfcf"/><path d="m114.585938 320h258.828124l-43.441406-54.027344c-3.035156-3.777344-7.621094-5.972656-12.46875-5.972656h-147.011718c-4.84375 0-9.429688 2.195312-12.46875 5.972656zm0 0" fill="#a4c9ff"/><path d="m38.414062 28.113281c0 5.753907-4.660156 10.417969-10.414062 10.417969s-10.414062-4.664062-10.414062-10.417969c0-5.75 4.660156-10.414062 10.414062-10.414062s10.414062 4.664062 10.414062 10.414062zm0 0" fill="#a4c9ff"/><path d="m470.414062 28.113281c0 5.753907-4.660156 10.417969-10.414062 10.417969s-10.414062-4.664062-10.414062-10.417969c0-5.75 4.660156-10.414062 10.414062-10.414062s10.414062 4.664062 10.414062 10.414062zm0 0" fill="#a4c9ff"/><path d="m38.414062 296.113281c0 5.753907-4.660156 10.417969-10.414062 10.417969s-10.414062-4.664062-10.414062-10.417969c0-5.75 4.660156-10.414062 10.414062-10.414062s10.414062 4.664062 10.414062 10.414062zm0 0" fill="#a4c9ff"/><path d="m470.414062 296.113281c0 5.753907-4.660156 10.417969-10.414062 10.417969s-10.414062-4.664062-10.414062-10.417969c0-5.75 4.660156-10.414062 10.414062-10.414062s10.414062 4.664062 10.414062 10.414062zm0 0" fill="#a4c9ff"/><path d="m143.027344 163.382812c-17.671875 0-32.046875-14.003906-32.046875-31.21875 0-17.210937 14.375-31.214843 32.046875-31.214843s32.046875 14.003906 32.046875 31.214843c0 17.214844-14.375 31.21875-32.046875 31.21875zm0 0" fill="#a4c9ff"/><path d="m143.027344 151.382812c-11.054688 0-20.046875-8.621093-20.046875-19.21875 0-10.59375 8.992187-19.214843 20.046875-19.214843 11.050781 0 20.046875 8.621093 20.046875 19.214843 0 10.601563-8.996094 19.21875-20.046875 19.21875zm0 0" fill="#e0ebfc"/><path d="m349.640625 163.382812c-17.671875 0-32.046875-14.003906-32.046875-31.21875 0-17.210937 14.375-31.214843 32.046875-31.214843 17.667969 0 32.046875 14.003906 32.046875 31.214843 0 17.214844-14.378906 31.21875-32.046875 31.21875zm0 0" fill="#a4c9ff"/><path d="m349.636719 151.382812c-11.050781 0-20.042969-8.621093-20.042969-19.21875 0-10.59375 8.992188-19.214843 20.042969-19.214843 11.054687 0 20.046875 8.621093 20.046875 19.214843.003906 10.601563-8.988282 19.21875-20.046875 19.21875zm0 0" fill="#e0ebfc"/><path d="m199.132812 151.765625v-39.199219c0-2.210937 1.792969-4 4-4h86.402344c2.207032 0 4 1.789063 4 4v39.199219c0 2.210937-1.792968 4-4 4h-86.402344c-2.207031 0-4-1.789063-4-4zm0 0" fill="#e0ebfc"/><path d="m282.917969 320h-77.839844v-24c0-3.3125 2.6875-6 6-6h65.839844c3.3125 0 6 2.6875 6 6zm0 0" fill="#f9cfcf"/><path d="m168.09375 300.667969c0 5.574219-4.519531 10.09375-10.09375 10.09375s-10.09375-4.519531-10.09375-10.09375 4.519531-10.09375 10.09375-10.09375 10.09375 4.519531 10.09375 10.09375zm0 0" fill="#e0ebfc"/><path d="m340.09375 300.667969c0 5.574219-4.519531 10.09375-10.09375 10.09375s-10.09375-4.519531-10.09375-10.09375 4.519531-10.09375 10.09375-10.09375 10.09375 4.519531 10.09375 10.09375zm0 0" fill="#e0ebfc"/><path d="m317.078125 284.667969c0 3.910156-3.167969 7.078125-7.078125 7.078125s-7.078125-3.167969-7.078125-7.078125c0-3.910157 3.167969-7.078125 7.078125-7.078125s7.078125 3.167968 7.078125 7.078125zm0 0" fill="#e0ebfc"/><path d="m185.078125 284.667969c0 3.910156-3.167969 7.078125-7.078125 7.078125s-7.078125-3.167969-7.078125-7.078125c0-3.910157 3.167969-7.078125 7.078125-7.078125s7.078125 3.167968 7.078125 7.078125zm0 0" fill="#e0ebfc"/><path d="m250.457031 285.339844h-12.914062c-2.855469 0-5.167969-2.316406-5.167969-5.167969v-5.164063c0-2.855468 2.316406-5.167968 5.167969-5.167968h12.914062c2.855469 0 5.167969 2.3125 5.167969 5.167968v5.164063c0 2.855469-2.3125 5.167969-5.167969 5.167969zm0 0" fill="#ffea92"/><g fill="#3762cc"><path d="m468 324h-448c-11.027344 0-20-8.972656-20-20v-284c0-11.027344 8.972656-20 20-20h448c11.027344 0 20 8.972656 20 20v284c0 11.027344-8.972656 20-20 20zm-448-316c-6.617188 0-12 5.382812-12 12v284c0 6.617188 5.382812 12 12 12h448c6.617188 0 12-5.382812 12-12v-284c0-6.617188-5.382812-12-12-12zm0 0"/><path d="m428 231.164062h-368c-7.71875 0-14-6.28125-14-14v-170c0-7.714843 6.28125-14 14-14h368c7.71875 0 14 6.285157 14 14v170c0 7.71875-6.28125 14-14 14zm-368-190c-3.308594 0-6 2.695313-6 6v170c0 3.308594 2.691406 6 6 6h368c3.308594 0 6-2.691406 6-6v-170c0-3.304687-2.691406-6-6-6zm0 0"/><path d="m349.5625 182.222656h-206.613281c-27.972657 0-50.734375-22.421875-50.734375-49.980468 0-27.554688 22.761718-49.976563 50.734375-49.976563h206.613281c27.976562 0 50.734375 22.421875 50.734375 49.976563 0 27.558593-22.757813 49.980468-50.734375 49.980468zm-206.613281-91.957031c-23.5625 0-42.734375 18.832031-42.734375 41.976563 0 23.148437 19.171875 41.980468 42.734375 41.980468h206.613281c23.5625 0 42.734375-18.832031 42.734375-41.980468 0-23.144532-19.171875-41.976563-42.734375-41.976563zm0 0"/><path d="m289.535156 159.769531h-86.402344c-4.410156 0-8-3.589843-8-8v-39.203125c0-4.414062 3.589844-8 8-8h86.402344c4.410156 0 8 3.585938 8 8v39.203125c0 4.410157-3.589844 8-8 8zm-86.402344-47.203125v39.207032l86.398438-.003907v-39.203125zm0 0"/><path d="m373.414062 324h-258.828124c-1.539063 0-2.941407-.882812-3.609376-2.273438-.664062-1.386718-.472656-3.035156.492188-4.234374l43.4375-54.023438c3.816406-4.746094 9.496094-7.46875 15.585938-7.46875h147.015624c6.089844 0 11.769532 2.722656 15.585938 7.46875l43.4375 54.023438c.964844 1.203124 1.15625 2.847656.492188 4.234374-.667969 1.390626-2.070313 2.273438-3.609376 2.273438zm-250.476562-8h242.125l-38.207031-47.519531c-2.289063-2.847657-5.699219-4.480469-9.351563-4.480469h-147.011718c-3.648438 0-7.058594 1.632812-9.351563 4.480469zm0 0"/><path d="m143.027344 155.382812c-13.257813 0-24.046875-10.414062-24.046875-23.21875 0-12.800781 10.789062-23.214843 24.046875-23.214843 13.257812 0 24.046875 10.414062 24.046875 23.214843 0 12.804688-10.789063 23.21875-24.046875 23.21875zm0-38.433593c-8.847656 0-16.046875 6.828125-16.046875 15.214843 0 8.394532 7.199219 15.21875 16.046875 15.21875s16.046875-6.824218 16.046875-15.21875c0-8.386718-7.199219-15.214843-16.046875-15.214843zm0 0"/><path d="m349.636719 155.382812c-13.257813 0-24.042969-10.414062-24.042969-23.21875 0-12.800781 10.789062-23.214843 24.042969-23.214843 13.261719 0 24.046875 10.414062 24.046875 23.214843 0 12.804688-10.785156 23.21875-24.046875 23.21875zm0-38.433593c-8.847657 0-16.042969 6.828125-16.042969 15.214843 0 8.394532 7.199219 15.21875 16.042969 15.21875 8.847656 0 16.046875-6.824218 16.046875-15.21875.003906-8.386718-7.199219-15.214843-16.046875-15.214843zm0 0"/></g></svg>